# xmcd
#
# Track frame offsets:
#	150
#	34641
#	90558
#	130802
#	162071
#	190031
#	204196
#	237865
#	277730
#	311475
#
# Disc length: 4628 seconds
#
# Revision: 1
# Processed by: cddbd v1.5.2PL0 Copyright (c) Steve Scherf et al.
# Submitted via: audiograbber 1.83.01
#
DISCID=7012120a
DTITLE=Paolo Fresu  - Cinquant' anni suonati 5
DYEAR=2012
DGENRE=Jazz
TTITLE0=O que serà/besame mucho
TTITLE1=Sueños
TTITLE2=Medley: a) La Filugnana - b) S'ottava trista - c) Sonos 'e memoria suit
TTITLE2=e
TTITLE3=Fellini
TTITLE4=Preghiera in gennaio
TTITLE5=Si Dolce è il tormento
TTITLE6=S'iki, s'iki baba   
TTITLE7=Il posto dove non si muore
TTITLE8=Moto perpetuo
TTITLE9=Medley: a) Domus de Janas - b) Passavamo sulla terra leggeri
EXTD=YEAR: 2012
EXTT0=
EXTT1=
EXTT2=
EXTT3=
EXTT4=
EXTT5=
EXTT6=
EXTT7=
EXTT8=
EXTT9=
PLAYORDER=
